# xmcd
#
# Track frame offsets: 
#        150
#        18563
#        34386
#        49656
#        67524
#        82967
#        98527
#        116620
#        132795
#        148683
#        173428
#        189239
#        205049
#
# Disc length: 2933 seconds
#
# Revision: 0
# Processed by: cddbd v1.5PL3 Copyright (c) Steve Scherf et al.
# Submitted via: ExactAudioCopy v0.95a5
#
DISCID=9c0b730d
DTITLE=Pure Gospel - The Promise
DYEAR=2002
DGENRE=Bluegrass
TTITLE0=Leaving On My Mind
TTITLE1=I'm Getting Ready
TTITLE2=What A Wonderful Time
TTITLE3=The Promise
TTITLE4=Come And Meet My Lord
TTITLE5=Three Rusty Nails
TTITLE6=I Know Who Holds Tomorrow
TTITLE7=Footprints
TTITLE8=Still On The Rock
TTITLE9=Fallen Leaves
TTITLE10=Praying
TTITLE11=It Won't Be Long
TTITLE12=There Is A God
EXTD=
EXTT0=
EXTT1=
EXTT2=
EXTT3=
EXTT4=
EXTT5=
EXTT6=
EXTT7=
EXTT8=
EXTT9=
EXTT10=
EXTT11=
EXTT12=
PLAYORDER=
